<?xml version="1.0" encoding="utf-8"?>
<!-- Generator: Adobe Illustrator 23.0.6, SVG Export Plug-In . SVG Version: 6.00 Build 0)  -->
<svg version="1.1" id="レイヤー_1" xmlns="http://www.w3.org/2000/svg" xmlns:xlink="http://www.w3.org/1999/xlink" x="0px"
	 y="0px" viewBox="0 0 48 48" style="enable-background:new 0 0 48 48;" xml:space="preserve">
<style type="text/css">
	.st0{fill:none;}
	.st1{fill:none;stroke:#FFFFFF;stroke-width:4;stroke-linecap:round;stroke-linejoin:round;}
</style>
<title>854_ch_f</title>
<rect class="st0" width="48" height="48"/>
<path class="st1" d="M36.5,10.1L19.1,27.5l-8.2-8.2c-0.8-0.8-2.2-0.8-3,0c0,0,0,0,0,0l-3.2,3.2c-0.8,0.8-0.8,2.2,0,3c0,0,0,0,0,0
	L19.1,40l23.7-23.7c0.8-0.8,0.8-2.2,0-3l-3.2-3.2C38.7,9.2,37.4,9.2,36.5,10.1C36.5,10.1,36.5,10.1,36.5,10.1z"/>
</svg>
