<?xml version="1.0" encoding="utf-8"?>
<!-- Generator: Adobe Illustrator 23.0.6, SVG Export Plug-In . SVG Version: 6.00 Build 0)  -->
<svg version="1.1" id="_x32_" xmlns="http://www.w3.org/2000/svg" xmlns:xlink="http://www.w3.org/1999/xlink" x="0px" y="0px"
	 viewBox="0 0 512 512" style="enable-background:new 0 0 512 512;" xml:space="preserve">
<style type="text/css">
	.st0{fill:#F5FF15;}
</style>
<g>
	<path class="st0" d="M476.4,125c-19.7,0-35.6,15.9-35.6,35.6c0,12.5,6.5,23.5,16.2,29.9c-9.3,31.8-27.9,78-44.8,87.6
		c-32,18.2-61.1-9.3-47-84.7c17.8-2,31.7-17.1,31.7-35.4c0-19.7-15.9-35.6-35.6-35.6s-35.6,15.9-35.6,35.6
		c0,12.1,6.1,22.8,15.4,29.3c-9.5,42.1-23.5,58.9-40.6,56.5c-25.8-3.5-30.5-50-30.9-114.9c12.9-5.3,22-18.1,22-32.9
		c0-19.7-15.9-35.6-35.6-35.6c-19.7,0-35.6,15.9-35.6,35.6c0,14.8,9.1,27.6,22,32.9c-0.4,64.9-5.1,111.4-30.9,114.9
		c-17.1,2.3-31.1-14.5-40.5-56.5c9.3-6.4,15.4-17.1,15.4-29.3c0-19.7-15.9-35.6-35.6-35.6c-19.7,0-35.6,15.9-35.6,35.6
		c0,18.3,13.9,33.4,31.7,35.4c14.1,75.4-15,102.9-47,84.7c-16.9-9.6-35.5-55.8-44.8-87.6c9.8-6.3,16.2-17.4,16.2-29.9
		c0-19.7-15.9-35.6-35.6-35.6C16,125,0,140.9,0,160.5c0,18.6,14.3,33.9,32.5,35.5l25.7,175.7h395.6L479.5,196
		c18.2-1.6,32.5-16.9,32.5-35.5C512,140.9,496.1,125,476.4,125z"/>
	<polygon class="st0" points="69.9,451.7 256,451.7 442.1,451.7 449.1,403.7 62.9,403.7 	"/>
</g>
</svg>
