<?xml version="1.0" encoding="utf-8"?>
<!-- Generator: Adobe Illustrator 23.0.6, SVG Export Plug-In . SVG Version: 6.00 Build 0)  -->
<svg version="1.1" id="レイヤー_1" xmlns:sketch="http://www.bohemiancoding.com/sketch/ns"
	 xmlns="http://www.w3.org/2000/svg" xmlns:xlink="http://www.w3.org/1999/xlink" x="0px" y="0px" viewBox="0 0 64 64"
	 style="enable-background:new 0 0 64 64;" xml:space="preserve">
<style type="text/css">
	.st0{fill:none;stroke:#FFFFFF;stroke-width:2;}
</style>
<title>Pen</title>
<desc>Created with Sketch.</desc>
<g id="Page-1" sketch:type="MSPage">
	<g id="Pen" transform="translate(2.000000, 1.000000)" sketch:type="MSLayerGroup">
		<path id="Shape" sketch:type="MSShapeGroup" class="st0" d="M15.2,57.1c-0.8,0.8-2,0.8-2.8,0L0,61.2l4.1-12.4
			c-0.8-0.8-0.8-2,0-2.8l10.4-7.6c0.8-0.8,2-0.8,2.8,0l5.5,5.5c0.8,0.8,0.8,2,0,2.8L15.2,57.1L15.2,57.1z"/>
		<path sketch:type="MSShapeGroup" class="st0" d="M9.2,51.9l-8.5,8.6"/>
		<circle id="Oval" sketch:type="MSShapeGroup" class="st0" cx="10.9" cy="49.9" r="2.9">
		</circle>
		<path sketch:type="MSShapeGroup" class="st0" d="M26.2,43.2c-2.7,2.7-3.9,0.2-6.2-2.1c-2.3-2.3-4.7-3.5-2.1-6.2
			c2.7-2.7,38.6-38.6,42.7-34.4C64.8,4.7,28.9,40.6,26.2,43.2L26.2,43.2z"/>
		<path sketch:type="MSShapeGroup" class="st0" d="M20.5,33.1l7.6,7.5"/>
	</g>
</g>
</svg>
