<?xml version="1.0" encoding="utf-8"?>
<!-- Generator: Adobe Illustrator 23.0.6, SVG Export Plug-In . SVG Version: 6.00 Build 0)  -->
<svg version="1.1" id="レイヤー_1" xmlns="http://www.w3.org/2000/svg" xmlns:xlink="http://www.w3.org/1999/xlink" x="0px"
	 y="0px" viewBox="0 0 107.1 107.1" style="enable-background:new 0 0 107.1 107.1;" xml:space="preserve">
<style type="text/css">
	.st0{fill:#FFFFFF;}
	.st1{fill:none;}
</style>
<path class="st0" d="M67.4,79.4c-10.6,0-20.6-4.1-28.1-11.6S27.7,50.3,27.7,39.7s4.1-20.6,11.6-28.1S56.8,0,67.4,0S88,4.1,95.5,11.6
	c15.5,15.5,15.5,40.7,0,56.2C88,75.3,78,79.4,67.4,79.4L67.4,79.4z M67.4,11.6c-7.5,0-14.6,2.9-19.9,8.2c-11,11-11,28.8,0,39.8
	c5.3,5.3,12.4,8.2,19.9,8.2s14.6-2.9,19.9-8.2c5.3-5.3,8.2-12.4,8.2-19.9s-2.9-14.6-8.2-19.9C82,14.5,74.9,11.6,67.4,11.6L67.4,11.6
	z M0,96.2l29.8-29.8c1.5,2.1,3.2,4.1,5,5.9s3.8,3.5,5.9,5l-29.8,29.8L0,96.2L0,96.2z"/>
<rect id="_x3C_Slice_x3E__100_" class="st1" width="107.1" height="107.1"/>
</svg>
